<?xml version="1.0" encoding="UTF-8" standalone="no"?>
<!DOCTYPE svg PUBLIC "-//W3C//DTD SVG 1.1//EN"
 "http://www.w3.org/Graphics/SVG/1.1/DTD/svg11.dtd">
<!-- Generated by graphviz version 2.36.0 (20140111.2315)
 -->
<!-- Title: graphname Pages: 1 -->
<svg width="1744pt" height="210pt"
 viewBox="0.00 0.00 1744.00 209.77" xmlns="http://www.w3.org/2000/svg" xmlns:xlink="http://www.w3.org/1999/xlink">
<g id="graph0" class="graph" transform="scale(1 1) rotate(0) translate(4 205.775)">
<title>graphname</title>
<polygon fill="white" stroke="none" points="-4,4 -4,-205.775 1740,-205.775 1740,4 -4,4"/>
<!-- select_slides -->
<g id="node1" class="node"><title>select_slides</title>
<path fill="none" stroke="black" d="M181,-163.775C181,-163.775 97,-163.775 97,-163.775 91,-163.775 85,-157.775 85,-151.775 85,-151.775 85,-139.775 85,-139.775 85,-133.775 91,-127.775 97,-127.775 97,-127.775 181,-127.775 181,-127.775 187,-127.775 193,-133.775 193,-139.775 193,-139.775 193,-151.775 193,-151.775 193,-157.775 187,-163.775 181,-163.775"/>
<text text-anchor="middle" x="139" y="-142.075" font-family="verdana" font-size="14.00">select_slides</text>
</g>
<!-- warp_slides -->
<g id="node2" class="node"><title>warp_slides</title>
<path fill="none" stroke="black" d="M831,-201.775C831,-201.775 753,-201.775 753,-201.775 747,-201.775 741,-195.775 741,-189.775 741,-189.775 741,-177.775 741,-177.775 741,-171.775 747,-165.775 753,-165.775 753,-165.775 831,-165.775 831,-165.775 837,-165.775 843,-171.775 843,-177.775 843,-177.775 843,-189.775 843,-189.775 843,-195.775 837,-201.775 831,-201.775"/>
<text text-anchor="middle" x="792" y="-180.075" font-family="verdana" font-size="14.00">warp_slides</text>
</g>
<!-- select_slides&#45;&gt;warp_slides -->
<g id="edge1" class="edge"><title>select_slides&#45;&gt;warp_slides</title>
<path fill="none" stroke="black" d="M193.274,-148.885C313.192,-155.884 603.704,-172.842 730.32,-180.233"/>
<polygon fill="black" stroke="black" points="730.415,-183.744 740.602,-180.833 730.823,-176.756 730.415,-183.744"/>
</g>
<!-- contrast_enhancement_boundaries -->
<g id="node5" class="node"><title>contrast_enhancement_boundaries</title>
<path fill="none" stroke="black" d="M1363.5,-116.775C1363.5,-116.775 1120.5,-116.775 1120.5,-116.775 1114.5,-116.775 1108.5,-110.775 1108.5,-104.775 1108.5,-104.775 1108.5,-92.7748 1108.5,-92.7748 1108.5,-86.7748 1114.5,-80.7748 1120.5,-80.7748 1120.5,-80.7748 1363.5,-80.7748 1363.5,-80.7748 1369.5,-80.7748 1375.5,-86.7748 1375.5,-92.7748 1375.5,-92.7748 1375.5,-104.775 1375.5,-104.775 1375.5,-110.775 1369.5,-116.775 1363.5,-116.775"/>
<text text-anchor="middle" x="1242" y="-95.0748" font-family="verdana" font-size="14.00">contrast_enhancement_boundaries</text>
</g>
<!-- select_slides&#45;&gt;contrast_enhancement_boundaries -->
<g id="edge4" class="edge"><title>select_slides&#45;&gt;contrast_enhancement_boundaries</title>
<path fill="none" stroke="black" d="M193.201,-144.204C276.812,-141.874 444.086,-137.775 586,-137.775 586,-137.775 586,-137.775 793,-137.775 895.426,-137.775 1010.53,-127.532 1098.42,-117.545"/>
<polygon fill="black" stroke="black" points="1098.92,-121.011 1108.45,-116.392 1098.12,-114.056 1098.92,-121.011"/>
</g>
<!-- gather_selections -->
<g id="node6" class="node"><title>gather_selections</title>
<path fill="none" stroke="black" d="M451.5,-109.775C451.5,-109.775 332.5,-109.775 332.5,-109.775 326.5,-109.775 320.5,-103.775 320.5,-97.7748 320.5,-97.7748 320.5,-85.7748 320.5,-85.7748 320.5,-79.7748 326.5,-73.7748 332.5,-73.7748 332.5,-73.7748 451.5,-73.7748 451.5,-73.7748 457.5,-73.7748 463.5,-79.7748 463.5,-85.7748 463.5,-85.7748 463.5,-97.7748 463.5,-97.7748 463.5,-103.775 457.5,-109.775 451.5,-109.775"/>
<text text-anchor="middle" x="392" y="-88.0748" font-family="verdana" font-size="14.00">gather_selections</text>
</g>
<!-- select_slides&#45;&gt;gather_selections -->
<g id="edge5" class="edge"><title>select_slides&#45;&gt;gather_selections</title>
<path fill="none" stroke="black" d="M193.186,-135.901C218.864,-130.998 250.088,-124.837 278,-118.775 288.488,-116.497 299.498,-113.999 310.361,-111.472"/>
<polygon fill="black" stroke="black" points="311.338,-114.838 320.275,-109.148 309.74,-108.023 311.338,-114.838"/>
</g>
<!-- extract_slide_clip -->
<g id="node3" class="node"><title>extract_slide_clip</title>
<path fill="none" stroke="black" d="M1723.5,-185.775C1723.5,-185.775 1604.5,-185.775 1604.5,-185.775 1598.5,-185.775 1592.5,-179.775 1592.5,-173.775 1592.5,-173.775 1592.5,-161.775 1592.5,-161.775 1592.5,-155.775 1598.5,-149.775 1604.5,-149.775 1604.5,-149.775 1723.5,-149.775 1723.5,-149.775 1729.5,-149.775 1735.5,-155.775 1735.5,-161.775 1735.5,-161.775 1735.5,-173.775 1735.5,-173.775 1735.5,-179.775 1729.5,-185.775 1723.5,-185.775"/>
<text text-anchor="middle" x="1664" y="-164.075" font-family="verdana" font-size="14.00">extract_slide_clip</text>
</g>
<!-- warp_slides&#45;&gt;extract_slide_clip -->
<g id="edge2" class="edge"><title>warp_slides&#45;&gt;extract_slide_clip</title>
<path fill="none" stroke="black" d="M843.217,-182.851C987.689,-180.194 1405.33,-172.514 1582.26,-169.26"/>
<polygon fill="black" stroke="black" points="1582.36,-172.759 1592.29,-169.075 1582.23,-165.76 1582.36,-172.759"/>
</g>
<!-- ffmpeg_thumbnails -->
<g id="node4" class="node"><title>ffmpeg_thumbnails</title>
<path fill="none" stroke="black" d="M457.5,-55.7748C457.5,-55.7748 326.5,-55.7748 326.5,-55.7748 320.5,-55.7748 314.5,-49.7748 314.5,-43.7748 314.5,-43.7748 314.5,-31.7748 314.5,-31.7748 314.5,-25.7748 320.5,-19.7748 326.5,-19.7748 326.5,-19.7748 457.5,-19.7748 457.5,-19.7748 463.5,-19.7748 469.5,-25.7748 469.5,-31.7748 469.5,-31.7748 469.5,-43.7748 469.5,-43.7748 469.5,-49.7748 463.5,-55.7748 457.5,-55.7748"/>
<text text-anchor="middle" x="392" y="-34.0748" font-family="verdana" font-size="14.00">ffmpeg_thumbnails</text>
</g>
<!-- ffmpeg_thumbnails&#45;&gt;contrast_enhancement_boundaries -->
<g id="edge3" class="edge"><title>ffmpeg_thumbnails&#45;&gt;contrast_enhancement_boundaries</title>
<path fill="none" stroke="black" d="M457.068,-19.7141C472.93,-16.0075 489.975,-12.6628 506,-10.7748 756.801,18.7722 823.198,-17.5141 1072,-60.7748 1100.23,-65.6842 1130.87,-72.2043 1158.2,-78.4556"/>
<polygon fill="black" stroke="black" points="1157.58,-81.9042 1168.11,-80.743 1159.15,-75.0835 1157.58,-81.9042"/>
</g>
<!-- histogram_imlabdiff -->
<g id="node9" class="node"><title>histogram_imlabdiff</title>
<path fill="none" stroke="black" d="M655.5,-109.775C655.5,-109.775 518.5,-109.775 518.5,-109.775 512.5,-109.775 506.5,-103.775 506.5,-97.7748 506.5,-97.7748 506.5,-85.7748 506.5,-85.7748 506.5,-79.7748 512.5,-73.7748 518.5,-73.7748 518.5,-73.7748 655.5,-73.7748 655.5,-73.7748 661.5,-73.7748 667.5,-79.7748 667.5,-85.7748 667.5,-85.7748 667.5,-97.7748 667.5,-97.7748 667.5,-103.775 661.5,-109.775 655.5,-109.775"/>
<text text-anchor="middle" x="587" y="-88.0748" font-family="verdana" font-size="14.00">histogram_imlabdiff</text>
</g>
<!-- ffmpeg_thumbnails&#45;&gt;histogram_imlabdiff -->
<g id="edge9" class="edge"><title>ffmpeg_thumbnails&#45;&gt;histogram_imlabdiff</title>
<path fill="none" stroke="black" d="M457.535,-55.8311C474.917,-60.6947 493.86,-65.9947 511.727,-70.9939"/>
<polygon fill="black" stroke="black" points="510.953,-74.4116 521.526,-73.7356 512.839,-67.6705 510.953,-74.4116"/>
</g>
<!-- number_of_files -->
<g id="node11" class="node"><title>number_of_files</title>
<path fill="none" stroke="black" d="M642,-55.7748C642,-55.7748 532,-55.7748 532,-55.7748 526,-55.7748 520,-49.7748 520,-43.7748 520,-43.7748 520,-31.7748 520,-31.7748 520,-25.7748 526,-19.7748 532,-19.7748 532,-19.7748 642,-19.7748 642,-19.7748 648,-19.7748 654,-25.7748 654,-31.7748 654,-31.7748 654,-43.7748 654,-43.7748 654,-49.7748 648,-55.7748 642,-55.7748"/>
<text text-anchor="middle" x="587" y="-34.0748" font-family="verdana" font-size="14.00">number_of_files</text>
</g>
<!-- ffmpeg_thumbnails&#45;&gt;number_of_files -->
<g id="edge11" class="edge"><title>ffmpeg_thumbnails&#45;&gt;number_of_files</title>
<path fill="none" stroke="black" d="M469.556,-37.7748C482.807,-37.7748 496.582,-37.7748 509.823,-37.7748"/>
<polygon fill="black" stroke="black" points="509.826,-41.2749 519.826,-37.7748 509.826,-34.2749 509.826,-41.2749"/>
</g>
<!-- enhance_contrast -->
<g id="node13" class="node"><title>enhance_contrast</title>
<path fill="none" stroke="black" d="M1543.5,-139.775C1543.5,-139.775 1424.5,-139.775 1424.5,-139.775 1418.5,-139.775 1412.5,-133.775 1412.5,-127.775 1412.5,-127.775 1412.5,-115.775 1412.5,-115.775 1412.5,-109.775 1418.5,-103.775 1424.5,-103.775 1424.5,-103.775 1543.5,-103.775 1543.5,-103.775 1549.5,-103.775 1555.5,-109.775 1555.5,-115.775 1555.5,-115.775 1555.5,-127.775 1555.5,-127.775 1555.5,-133.775 1549.5,-139.775 1543.5,-139.775"/>
<text text-anchor="middle" x="1484" y="-118.075" font-family="verdana" font-size="14.00">enhance_contrast</text>
</g>
<!-- contrast_enhancement_boundaries&#45;&gt;enhance_contrast -->
<g id="edge16" class="edge"><title>contrast_enhancement_boundaries&#45;&gt;enhance_contrast</title>
<path fill="none" stroke="black" d="M1375.64,-111.486C1384.67,-112.352 1393.62,-113.209 1402.25,-114.037"/>
<polygon fill="black" stroke="black" points="1401.95,-117.524 1412.24,-114.994 1402.62,-110.556 1401.95,-117.524"/>
</g>
<!-- gather_selections&#45;&gt;histogram_imlabdiff -->
<g id="edge8" class="edge"><title>gather_selections&#45;&gt;histogram_imlabdiff</title>
<path fill="none" stroke="black" d="M463.77,-91.7748C474.396,-91.7748 485.47,-91.7748 496.425,-91.7748"/>
<polygon fill="black" stroke="black" points="496.435,-95.2749 506.435,-91.7748 496.435,-88.2749 496.435,-95.2749"/>
</g>
<!-- select_speaker -->
<g id="node7" class="node"><title>select_speaker</title>
<path fill="none" stroke="black" d="M188,-109.775C188,-109.775 90,-109.775 90,-109.775 84,-109.775 78,-103.775 78,-97.7748 78,-97.7748 78,-85.7748 78,-85.7748 78,-79.7748 84,-73.7748 90,-73.7748 90,-73.7748 188,-73.7748 188,-73.7748 194,-73.7748 200,-79.7748 200,-85.7748 200,-85.7748 200,-97.7748 200,-97.7748 200,-103.775 194,-109.775 188,-109.775"/>
<text text-anchor="middle" x="139" y="-88.0748" font-family="verdana" font-size="14.00">select_speaker</text>
</g>
<!-- select_speaker&#45;&gt;gather_selections -->
<g id="edge6" class="edge"><title>select_speaker&#45;&gt;gather_selections</title>
<path fill="none" stroke="black" d="M200.121,-91.7748C232.989,-91.7748 274.158,-91.7748 309.84,-91.7748"/>
<polygon fill="black" stroke="black" points="310.233,-95.2749 320.233,-91.7748 310.233,-88.2749 310.233,-95.2749"/>
</g>
<!-- number_of_vertical_stripes_speaker -->
<g id="node8" class="node"><title>number_of_vertical_stripes_speaker</title>
<path fill="none" stroke="black" d="M266,-55.7748C266,-55.7748 12,-55.7748 12,-55.7748 6,-55.7748 0,-49.7748 0,-43.7748 0,-43.7748 0,-31.7748 0,-31.7748 0,-25.7748 6,-19.7748 12,-19.7748 12,-19.7748 266,-19.7748 266,-19.7748 272,-19.7748 278,-25.7748 278,-31.7748 278,-31.7748 278,-43.7748 278,-43.7748 278,-49.7748 272,-55.7748 266,-55.7748"/>
<text text-anchor="middle" x="139" y="-34.0748" font-family="verdana" font-size="14.00">number_of_vertical_stripes_speaker</text>
</g>
<!-- number_of_vertical_stripes_speaker&#45;&gt;gather_selections -->
<g id="edge7" class="edge"><title>number_of_vertical_stripes_speaker&#45;&gt;gather_selections</title>
<path fill="none" stroke="black" d="M234.755,-55.777C249.26,-58.6879 264.044,-61.7436 278,-64.7748 288.488,-67.0529 299.498,-69.5504 310.361,-72.0778"/>
<polygon fill="black" stroke="black" points="309.74,-75.5271 320.275,-74.4018 311.338,-68.7119 309.74,-75.5271"/>
</g>
<!-- histogram_correlation -->
<g id="node10" class="node"><title>histogram_correlation</title>
<path fill="none" stroke="black" d="M867.5,-105.775C867.5,-105.775 716.5,-105.775 716.5,-105.775 710.5,-105.775 704.5,-99.7748 704.5,-93.7748 704.5,-93.7748 704.5,-81.7748 704.5,-81.7748 704.5,-75.7748 710.5,-69.7748 716.5,-69.7748 716.5,-69.7748 867.5,-69.7748 867.5,-69.7748 873.5,-69.7748 879.5,-75.7748 879.5,-81.7748 879.5,-81.7748 879.5,-93.7748 879.5,-93.7748 879.5,-99.7748 873.5,-105.775 867.5,-105.775"/>
<text text-anchor="middle" x="792" y="-84.0748" font-family="verdana" font-size="14.00">histogram_correlation</text>
</g>
<!-- histogram_imlabdiff&#45;&gt;histogram_correlation -->
<g id="edge10" class="edge"><title>histogram_imlabdiff&#45;&gt;histogram_correlation</title>
<path fill="none" stroke="black" d="M667.648,-90.2054C676.364,-90.0337 685.306,-89.8575 694.2,-89.6822"/>
<polygon fill="black" stroke="black" points="694.277,-93.1815 704.206,-89.4851 694.139,-86.1828 694.277,-93.1815"/>
</g>
<!-- compute_segments -->
<g id="node12" class="node"><title>compute_segments</title>
<path fill="none" stroke="black" d="M1059.5,-105.775C1059.5,-105.775 928.5,-105.775 928.5,-105.775 922.5,-105.775 916.5,-99.7748 916.5,-93.7748 916.5,-93.7748 916.5,-81.7748 916.5,-81.7748 916.5,-75.7748 922.5,-69.7748 928.5,-69.7748 928.5,-69.7748 1059.5,-69.7748 1059.5,-69.7748 1065.5,-69.7748 1071.5,-75.7748 1071.5,-81.7748 1071.5,-81.7748 1071.5,-93.7748 1071.5,-93.7748 1071.5,-99.7748 1065.5,-105.775 1059.5,-105.775"/>
<text text-anchor="middle" x="994" y="-84.0748" font-family="verdana" font-size="14.00">compute_segments</text>
</g>
<!-- histogram_correlation&#45;&gt;compute_segments -->
<g id="edge13" class="edge"><title>histogram_correlation&#45;&gt;compute_segments</title>
<path fill="none" stroke="black" d="M879.56,-87.7748C888.362,-87.7748 897.305,-87.7748 906.111,-87.7748"/>
<polygon fill="black" stroke="black" points="906.367,-91.2749 916.367,-87.7748 906.367,-84.2749 906.367,-91.2749"/>
</g>
<!-- number_of_files&#45;&gt;histogram_correlation -->
<g id="edge12" class="edge"><title>number_of_files&#45;&gt;histogram_correlation</title>
<path fill="none" stroke="black" d="M654.189,-54.0775C671.371,-58.3095 690.095,-62.9213 708.021,-67.3366"/>
<polygon fill="black" stroke="black" points="707.336,-70.7724 717.883,-69.7656 709.01,-63.9756 707.336,-70.7724"/>
</g>
<!-- number_of_files&#45;&gt;compute_segments -->
<g id="edge14" class="edge"><title>number_of_files&#45;&gt;compute_segments</title>
<path fill="none" stroke="black" d="M654.157,-40.0433C713.567,-42.7778 803.023,-48.6229 880,-60.7748 891.518,-62.5932 903.597,-64.9672 915.396,-67.5532"/>
<polygon fill="black" stroke="black" points="914.698,-70.9836 925.223,-69.7678 916.237,-64.1549 914.698,-70.9836"/>
</g>
<!-- compute_segments&#45;&gt;contrast_enhancement_boundaries -->
<g id="edge15" class="edge"><title>compute_segments&#45;&gt;contrast_enhancement_boundaries</title>
<path fill="none" stroke="black" d="M1071.82,-91.2101C1080.33,-91.5902 1089.17,-91.9857 1098.16,-92.3878"/>
<polygon fill="black" stroke="black" points="1098.22,-95.8937 1108.36,-92.844 1098.53,-88.9007 1098.22,-95.8937"/>
</g>
<!-- enhance_contrast&#45;&gt;extract_slide_clip -->
<g id="edge17" class="edge"><title>enhance_contrast&#45;&gt;extract_slide_clip</title>
<path fill="none" stroke="black" d="M1554.84,-139.823C1564.16,-142.233 1573.78,-144.719 1583.26,-147.168"/>
<polygon fill="black" stroke="black" points="1582.51,-150.59 1593.07,-149.703 1584.26,-143.812 1582.51,-150.59"/>
</g>
</g>
</svg>
